<?xml version="1.0" standalone="no"?><!DOCTYPE svg PUBLIC "-//W3C//DTD SVG 1.1//EN" "http://www.w3.org/Graphics/SVG/1.1/DTD/svg11.dtd"><svg t="1756904093103" class="icon" viewBox="0 0 1024 1024" version="1.1" xmlns="http://www.w3.org/2000/svg" p-id="4797" xmlns:xlink="http://www.w3.org/1999/xlink" width="200" height="200"><path d="M0 0h1024v1024H0z" fill="#FFFFFF" p-id="4798"></path><path d="M757.909504 537.673728c0 15.835136-12.836864 28.672-28.672 28.672H292.864c-15.835136 0-28.672-12.836864-28.672-28.672s12.836864-28.672 28.672-28.672h436.373504c15.835136 0 28.672 12.836864 28.672 28.672z" fill="#00D4D1" p-id="4799"></path><path d="M507.600896 665.757696c0 29.581312-23.980032 53.563392-53.563392 53.563392-29.581312 0-53.563392-23.98208-53.563392-53.563392 0-29.581312 23.98208-53.563392 53.563392-53.563392 29.58336 0 53.563392 23.98208 53.563392 53.563392zM467.253248 531.501056c22.091776 0 39.999488-17.907712 39.999488-39.99744 0-22.089728-17.907712-39.99744-39.999488-39.99744-22.089728 0-39.99744 17.907712-39.99744 39.99744 0 22.089728 17.907712 39.99744 39.99744 39.99744z" fill="#666666" p-id="4800"></path><path d="M684.296192 66.594816c-11.196416-11.198464-29.351936-11.198464-40.548352 0-11.196416 11.196416-11.196416 29.349888 0 40.548352l18.937856 18.935808L114.837504 673.929216c-73.211904 73.211904-73.211904 191.911936 0 265.12384 73.211904 73.211904 191.911936 73.211904 265.12384 0l547.848192-547.848192 18.935808 18.937856c11.198464 11.198464 29.351936 11.198464 40.548352 0 11.198464-11.196416 11.198464-29.349888 0-40.548352L684.296192 66.594816z m17.600512 101.369856l184.027136 184.027136-546.510848 546.510848c-50.819072 50.819072-133.210112 50.819072-184.027136 0-50.819072-50.817024-50.819072-133.208064 0-184.027136l546.510848-546.5088z" fill="#666666" p-id="4801"></path></svg>